<?xml version="1.0" encoding="UTF-8"?>
<svg id="_レイヤー_2" data-name="レイヤー 2" xmlns="http://www.w3.org/2000/svg" viewBox="0 0 28.11 22.39">
  <defs>
    <style>
      .cls-1 {
        fill: #939898;
        stroke-width: 0px;
      }
    </style>
  </defs>
  <g id="_文字" data-name="文字">
    <g>
      <path class="cls-1" d="m26.98,16.29c.75-1.18,1.13-2.46,1.13-3.8,0-2.98-1.94-5.6-4.84-7.05.53,1.19.81,2.46.81,3.77,0,2.92-1.37,5.65-3.86,7.68-1.91,1.56-4.31,2.57-6.91,2.91,1.4.6,3,.94,4.69.94.36,0,.73-.02,1.1-.05h0c1.8,1.09,4.07,1.69,6.39,1.69.32,0,.64-.01.96-.03.16-.01.29-.12.32-.28.03-.15-.03-.31-.17-.39-1.16-.66-2.07-1.53-2.63-2.53,1.26-.75,2.3-1.75,3.02-2.87Z"/>
      <path class="cls-1" d="m11.28,0C5.06,0,0,4.13,0,9.22c0,1.5.43,2.92,1.26,4.24.8,1.26,1.97,2.37,3.37,3.2-.63,1.11-1.65,2.08-2.94,2.82-.15.09-.23.26-.19.43.04.17.18.3.36.31.35.03.71.04,1.07.04,2.59,0,5.12-.67,7.13-1.88h0c.41.04.82.05,1.22.05,6.22,0,11.28-4.13,11.28-9.22S17.5,0,11.28,0Zm6.88,14.39c-1.82,1.49-4.27,2.31-6.88,2.31-.35,0-.71-.02-1.07-.05l-.56-.05-.48.29c-1.03.62-2.22,1.08-3.49,1.35.17-.23.32-.48.46-.72l.84-1.48-1.46-.87c-1.17-.7-2.14-1.62-2.8-2.65-.66-1.04-.99-2.15-.99-3.31,0-1.93.95-3.77,2.67-5.17,1.82-1.49,4.27-2.31,6.88-2.31s5.05.82,6.88,2.31c1.72,1.41,2.67,3.24,2.67,5.17s-.95,3.77-2.67,5.17Z"/>
      <path class="cls-1" d="m6.9,6.35c-.51,0-.93-.42-.93-.93s.42-.93.93-.93h7.48c.51,0,.93.42.93.93s-.42.93-.93.93h-7.48Z"/>
      <path class="cls-1" d="m6.9,10.1c-.51,0-.93-.42-.93-.93s.42-.93.93-.93h8.69c.51,0,.93.42.93.93s-.42.93-.93.93H6.9Z"/>
      <path class="cls-1" d="m6.9,13.84c-.51,0-.93-.42-.93-.93s.42-.93.93-.93h5.18c.51,0,.93.42.93.93s-.42.93-.93.93h-5.18Z"/>
    </g>
  </g>
</svg>