<?xml version="1.0" encoding="UTF-8"?>
<svg id="_レイヤー_2" data-name="レイヤー 2" xmlns="http://www.w3.org/2000/svg" viewBox="0 0 35.24 24.48">
  <defs>
    <style>
      .cls-1 {
        fill: #939898;
        stroke-width: 0px;
      }
    </style>
  </defs>
  <g id="_文字" data-name="文字">
    <g>
      <path class="cls-1" d="m30.57,2.93l-.18.18c-.37.37-.76.71-1.15,1.02l3.22,8.24h0s.09.22.09.22c-.84.83-1.17,2-.86,2.98-2.75,1.54-5.97,2.04-9.09,2.54-3.08.49-6.26.99-9.02,2.48-.21-.43-.55-.76-.95-.93-1.01.33-1.98.75-2.88,1.31l1.37,3.52.18-.18c3.26-3.26,7.63-3.95,11.85-4.62,4.27-.68,8.69-1.37,12.03-4.71l.08-.08-4.67-11.97Z"/>
      <path class="cls-1" d="m19.79,10.11c-.67-1.73-2.53-2.98-4.41-2.98-.21,0-.41.02-.61.05-.09.01-.18.03-.26.05-.02,1.83-.65,3.51-1.7,4.86.84,1.39,2.45,2.34,4.09,2.34h0c.21,0,.41-.02.61-.05.95-.14,1.71-.64,2.16-1.41.47-.82.52-1.86.13-2.86Z"/>
      <path class="cls-1" d="m25.86,0l-.18.18c-3.18,3.18-7.42,3.92-11.54,4.57.16.52.27,1.06.32,1.61,3.1-.49,6.3-1.01,9.07-2.54.31.66.92,1.08,1.59,1.08.27,0,.53-.07.78-.2l1.94,4.96c-.84.83-1.17,2-.86,2.98-2.75,1.54-5.97,2.04-9.09,2.54-3.08.49-6.26.99-9.02,2.48-.32-.65-.93-1.06-1.59-1.06-.31,0-.62.09-.9.26l-.66-1.69c-.68-.06-1.34-.21-1.97-.43l2.66,6.81.18-.18c3.26-3.26,7.63-3.95,11.85-4.62,4.27-.68,8.69-1.37,12.03-4.71l.08-.08L25.86,0Z"/>
      <polygon class="cls-1" points="5.79 10.01 5.79 8.74 4.36 8.74 4.36 7.81 5.79 7.81 5.79 7.41 4.36 7.41 4.36 6.47 5.58 6.47 4.3 4.43 5.67 4.43 6.43 5.64 7.19 4.43 8.57 4.43 7.29 6.47 8.5 6.47 8.5 7.41 7.08 7.41 7.08 7.81 8.5 7.81 8.5 8.74 7.08 8.74 7.08 10.01 5.79 10.01"/>
      <path class="cls-1" d="m6.43.7C2.89.7,0,3.58,0,7.13s2.89,6.43,6.43,6.43,6.43-2.89,6.43-6.43S9.98.7,6.43.7Zm0,11.24c-2.66,0-4.81-2.15-4.81-4.81S3.78,2.32,6.43,2.32s4.81,2.15,4.81,4.81-2.15,4.81-4.81,4.81Z"/>
    </g>
  </g>
</svg>